<svg xmlns="http://www.w3.org/2000/svg" xmlns:xlink="http://www.w3.org/1999/xlink" width="100" zoomAndPan="magnify" viewBox="0 0 75 74.999997" height="100" preserveAspectRatio="xMidYMid meet" version="1.0"><defs><clipPath id="bf38bc9c15"><path d="M 0.824219 0.824219 L 74.324219 0.824219 L 74.324219 74.324219 L 0.824219 74.324219 Z M 0.824219 0.824219 " clip-rule="nonzero"/></clipPath><clipPath id="014409c0cf"><path d="M 0.824219 74.210938 L 0.824219 55.867188 L 37.519531 55.867188 C 42.558594 55.867188 46.871094 54.074219 50.457031 50.492188 C 54.0625 46.90625 55.867188 42.582031 55.867188 37.515625 L 74.210938 37.515625 C 74.210938 47.648438 70.617188 56.296875 63.425781 63.460938 C 56.261719 70.628906 47.621094 74.210938 37.515625 74.210938 Z M 0.824219 37.515625 C 0.824219 27.414062 4.40625 18.777344 11.578125 11.613281 C 18.742188 4.417969 27.390625 0.824219 37.519531 0.824219 L 74.210938 0.824219 L 74.210938 19.171875 L 37.519531 19.171875 C 32.457031 19.171875 28.132812 20.976562 24.546875 24.582031 C 20.964844 28.164062 19.171875 32.476562 19.171875 37.515625 Z M 0.824219 37.515625 " clip-rule="nonzero"/></clipPath></defs><g clip-path="url(#bf38bc9c15)"><g clip-path="url(#014409c0cf)"><path fill="#000000" d="M 19.171875 -30.953125 L -30.953125 55.867188 L 55.867188 105.988281 L 105.988281 19.171875 Z M 19.171875 -30.953125 " fill-opacity="1" fill-rule="nonzero"/></g></g></svg>