<svg xmlns="http://www.w3.org/2000/svg" xmlns:xlink="http://www.w3.org/1999/xlink" width="305" zoomAndPan="magnify" viewBox="0 0 228.75 74.999997" height="100" preserveAspectRatio="xMidYMid meet" version="1.0"><defs><clipPath id="11bd32197e"><path d="M 2 25 L 50 25 L 50 50 L 2 50 Z M 2 25 " clip-rule="nonzero"/></clipPath><clipPath id="38fd1c9f72"><path d="M 2.042969 49.6875 C 2.042969 43.144531 4.363281 37.550781 9.003906 32.910156 C 13.644531 28.253906 19.246094 25.925781 25.804688 25.925781 L 49.570312 25.925781 L 49.570312 37.804688 L 25.804688 37.804688 C 22.527344 37.804688 19.726562 38.972656 17.402344 41.308594 C 15.082031 43.628906 13.921875 46.425781 13.921875 49.6875 Z M 2.042969 49.6875 " clip-rule="nonzero"/></clipPath><clipPath id="e18026a75e"><path d="M 2 49 L 50 49 L 50 74 L 2 74 Z M 2 49 " clip-rule="nonzero"/></clipPath><clipPath id="33afaf0ec9"><path d="M 2.042969 73.453125 L 2.042969 61.570312 L 25.804688 61.570312 C 29.070312 61.570312 31.863281 60.410156 34.183594 58.089844 C 36.519531 55.769531 37.691406 52.964844 37.691406 49.683594 L 49.574219 49.683594 C 49.574219 56.246094 47.246094 61.847656 42.589844 66.488281 C 37.945312 71.128906 32.355469 73.449219 25.808594 73.449219 Z M 2.042969 73.453125 " clip-rule="nonzero"/></clipPath><clipPath id="7674786a21"><path d="M 52 25 L 100 25 L 100 74 L 52 74 Z M 52 25 " clip-rule="nonzero"/></clipPath><clipPath id="f25167a633"><path d="M 52.3125 73.453125 L 52.3125 49.6875 C 52.3125 43.144531 54.632812 37.550781 59.273438 32.910156 C 63.914062 28.253906 69.511719 25.925781 76.074219 25.925781 C 82.617188 25.925781 88.210938 28.253906 92.851562 32.910156 C 97.507812 37.550781 99.835938 43.144531 99.835938 49.6875 L 99.835938 73.453125 L 87.960938 73.453125 L 87.960938 49.6875 C 87.960938 46.425781 86.792969 43.628906 84.457031 41.308594 C 82.136719 38.972656 79.34375 37.804688 76.078125 37.804688 C 72.796875 37.804688 70 38.972656 67.675781 41.308594 C 65.355469 43.628906 64.195312 46.425781 64.195312 49.6875 L 64.195312 73.453125 Z M 52.3125 73.453125 " clip-rule="nonzero"/></clipPath><clipPath id="eb07d2b2ab"><path d="M 102 25 L 151 25 L 151 74 L 102 74 Z M 102 25 " clip-rule="nonzero"/></clipPath><clipPath id="34156163d7"><path d="M 137.792969 46.441406 C 137.261719 44.535156 136.246094 42.820312 134.726562 41.308594 C 132.40625 38.972656 129.609375 37.804688 126.347656 37.804688 C 123.066406 37.804688 120.261719 38.972656 117.941406 41.308594 C 116.429688 42.816406 115.421875 44.535156 114.894531 46.441406 Z M 126.347656 73.453125 C 119.785156 73.453125 114.183594 71.132812 109.542969 66.492188 C 104.902344 61.851562 102.582031 56.25 102.582031 49.6875 C 102.582031 43.144531 104.902344 37.550781 109.542969 32.910156 C 114.183594 28.253906 119.785156 25.925781 126.347656 25.925781 C 132.890625 25.925781 138.484375 28.253906 143.125 32.910156 C 147.609375 37.378906 149.929688 42.730469 150.097656 48.964844 L 150.109375 55.605469 L 116.023438 55.605469 C 116.539062 56.488281 117.171875 57.320312 117.945312 58.09375 C 120.265625 60.414062 123.070312 61.574219 126.351562 61.574219 L 126.351562 73.457031 Z M 126.347656 73.453125 " clip-rule="nonzero"/></clipPath><clipPath id="462adc32e3"><path d="M 152 25 L 201 25 L 201 74 L 152 74 Z M 152 25 " clip-rule="nonzero"/></clipPath><clipPath id="aac7bd00df"><path d="M 176.617188 73.453125 C 170.058594 73.453125 164.457031 71.132812 159.816406 66.492188 C 155.175781 61.851562 152.855469 56.25 152.855469 49.6875 C 152.855469 43.144531 155.175781 37.550781 159.816406 32.910156 C 164.457031 28.253906 170.058594 25.925781 176.617188 25.925781 L 200.382812 25.925781 L 200.382812 37.804688 L 176.617188 37.804688 C 173.335938 37.804688 170.539062 38.972656 168.214844 41.308594 C 165.894531 43.628906 164.734375 46.425781 164.734375 49.6875 C 164.734375 52.96875 165.894531 55.769531 168.214844 58.09375 C 170.535156 60.417969 173.335938 61.574219 176.617188 61.574219 L 200.382812 61.574219 L 200.382812 73.457031 Z M 176.617188 73.453125 " clip-rule="nonzero"/></clipPath><clipPath id="4b18e1d410"><path d="M 203 2 L 227 2 L 227 74 L 203 74 Z M 203 2 " clip-rule="nonzero"/></clipPath><clipPath id="8b88f2a0a2"><path d="M 226.886719 73.453125 C 220.324219 73.453125 214.726562 71.132812 210.082031 66.492188 C 205.441406 61.851562 203.121094 56.25 203.121094 49.6875 L 203.121094 2.15625 L 215.007812 2.15625 L 215.007812 25.921875 L 226.890625 25.921875 L 226.890625 37.804688 L 215.007812 37.804688 L 215.007812 49.6875 C 215.007812 52.96875 216.167969 55.769531 218.488281 58.09375 C 220.808594 60.417969 223.609375 61.574219 226.890625 61.574219 L 226.890625 73.457031 Z M 226.886719 73.453125 " clip-rule="nonzero"/></clipPath><clipPath id="b4a84acb12"><path d="M 2 25 L 50 25 L 50 50 L 2 50 Z M 2 25 " clip-rule="nonzero"/></clipPath><clipPath id="c35caa636c"><path d="M 2.042969 49.6875 C 2.042969 43.144531 4.363281 37.550781 9.003906 32.910156 C 13.644531 28.253906 19.246094 25.925781 25.804688 25.925781 L 49.570312 25.925781 L 49.570312 37.804688 L 25.804688 37.804688 C 22.527344 37.804688 19.726562 38.972656 17.402344 41.308594 C 15.082031 43.628906 13.921875 46.425781 13.921875 49.6875 Z M 2.042969 49.6875 " clip-rule="nonzero"/></clipPath><clipPath id="e2769ecfc8"><path d="M 2 49 L 50 49 L 50 74 L 2 74 Z M 2 49 " clip-rule="nonzero"/></clipPath><clipPath id="44d3b2210b"><path d="M 2.042969 73.453125 L 2.042969 61.570312 L 25.804688 61.570312 C 29.070312 61.570312 31.863281 60.410156 34.183594 58.089844 C 36.519531 55.769531 37.691406 52.964844 37.691406 49.683594 L 49.574219 49.683594 C 49.574219 56.246094 47.246094 61.847656 42.589844 66.488281 C 37.945312 71.128906 32.355469 73.449219 25.808594 73.449219 Z M 2.042969 73.453125 " clip-rule="nonzero"/></clipPath><clipPath id="9357028fbf"><path d="M 52 25 L 100 25 L 100 74 L 52 74 Z M 52 25 " clip-rule="nonzero"/></clipPath><clipPath id="3d309127a8"><path d="M 52.3125 73.453125 L 52.3125 49.6875 C 52.3125 43.144531 54.632812 37.550781 59.273438 32.910156 C 63.914062 28.253906 69.511719 25.925781 76.074219 25.925781 C 82.617188 25.925781 88.210938 28.253906 92.851562 32.910156 C 97.507812 37.550781 99.835938 43.144531 99.835938 49.6875 L 99.835938 73.453125 L 87.960938 73.453125 L 87.960938 49.6875 C 87.960938 46.425781 86.792969 43.628906 84.457031 41.308594 C 82.136719 38.972656 79.34375 37.804688 76.078125 37.804688 C 72.796875 37.804688 70 38.972656 67.675781 41.308594 C 65.355469 43.628906 64.195312 46.425781 64.195312 49.6875 L 64.195312 73.453125 Z M 52.3125 73.453125 " clip-rule="nonzero"/></clipPath><clipPath id="129000b46d"><path d="M 102 25 L 151 25 L 151 74 L 102 74 Z M 102 25 " clip-rule="nonzero"/></clipPath><clipPath id="69bd3a30f4"><path d="M 137.792969 46.441406 C 137.261719 44.535156 136.246094 42.820312 134.726562 41.308594 C 132.40625 38.972656 129.609375 37.804688 126.347656 37.804688 C 123.066406 37.804688 120.261719 38.972656 117.941406 41.308594 C 116.429688 42.816406 115.421875 44.535156 114.894531 46.441406 Z M 126.347656 73.453125 C 119.785156 73.453125 114.183594 71.132812 109.542969 66.492188 C 104.902344 61.851562 102.582031 56.25 102.582031 49.6875 C 102.582031 43.144531 104.902344 37.550781 109.542969 32.910156 C 114.183594 28.253906 119.785156 25.925781 126.347656 25.925781 C 132.890625 25.925781 138.484375 28.253906 143.125 32.910156 C 147.609375 37.378906 149.929688 42.730469 150.097656 48.964844 L 150.109375 55.605469 L 116.023438 55.605469 C 116.539062 56.488281 117.171875 57.320312 117.945312 58.09375 C 120.265625 60.414062 123.070312 61.574219 126.351562 61.574219 L 126.351562 73.457031 Z M 126.347656 73.453125 " clip-rule="nonzero"/></clipPath><clipPath id="dd5a73866c"><path d="M 152 25 L 201 25 L 201 74 L 152 74 Z M 152 25 " clip-rule="nonzero"/></clipPath><clipPath id="567cf011e1"><path d="M 176.617188 73.453125 C 170.058594 73.453125 164.457031 71.132812 159.816406 66.492188 C 155.175781 61.851562 152.855469 56.25 152.855469 49.6875 C 152.855469 43.144531 155.175781 37.550781 159.816406 32.910156 C 164.457031 28.253906 170.058594 25.925781 176.617188 25.925781 L 200.382812 25.925781 L 200.382812 37.804688 L 176.617188 37.804688 C 173.335938 37.804688 170.539062 38.972656 168.214844 41.308594 C 165.894531 43.628906 164.734375 46.425781 164.734375 49.6875 C 164.734375 52.96875 165.894531 55.769531 168.214844 58.09375 C 170.535156 60.417969 173.335938 61.574219 176.617188 61.574219 L 200.382812 61.574219 L 200.382812 73.457031 Z M 176.617188 73.453125 " clip-rule="nonzero"/></clipPath><clipPath id="962a851a38"><path d="M 203 2 L 227 2 L 227 74 L 203 74 Z M 203 2 " clip-rule="nonzero"/></clipPath><clipPath id="1c02819b7d"><path d="M 226.886719 73.453125 C 220.324219 73.453125 214.726562 71.132812 210.082031 66.492188 C 205.441406 61.851562 203.121094 56.25 203.121094 49.6875 L 203.121094 2.15625 L 215.007812 2.15625 L 215.007812 25.921875 L 226.890625 25.921875 L 226.890625 37.804688 L 215.007812 37.804688 L 215.007812 49.6875 C 215.007812 52.96875 216.167969 55.769531 218.488281 58.09375 C 220.808594 60.417969 223.609375 61.574219 226.890625 61.574219 L 226.890625 73.457031 Z M 226.886719 73.453125 " clip-rule="nonzero"/></clipPath></defs><g clip-path="url(#11bd32197e)"><g clip-path="url(#38fd1c9f72)"><path fill="#000000" d="M 2.042969 25.925781 L 2.042969 49.6875 L 49.570312 49.6875 L 49.570312 25.925781 Z M 2.042969 25.925781 " fill-opacity="1" fill-rule="nonzero"/></g></g><g clip-path="url(#e18026a75e)"><g clip-path="url(#33afaf0ec9)"><path fill="#000000" d="M 2.042969 49.683594 L 2.042969 73.453125 L 49.574219 73.453125 L 49.574219 49.683594 Z M 2.042969 49.683594 " fill-opacity="1" fill-rule="nonzero"/></g></g><g clip-path="url(#7674786a21)"><g clip-path="url(#f25167a633)"><path fill="#000000" d="M 52.3125 25.925781 L 52.3125 73.453125 L 99.835938 73.453125 L 99.835938 25.925781 Z M 52.3125 25.925781 " fill-opacity="1" fill-rule="nonzero"/></g></g><g clip-path="url(#eb07d2b2ab)"><g clip-path="url(#34156163d7)"><path fill="#000000" d="M 102.582031 25.925781 L 102.582031 73.457031 L 150.109375 73.457031 L 150.109375 25.925781 Z M 102.582031 25.925781 " fill-opacity="1" fill-rule="nonzero"/></g></g><g clip-path="url(#462adc32e3)"><g clip-path="url(#aac7bd00df)"><path fill="#000000" d="M 152.855469 25.925781 L 152.855469 73.457031 L 200.382812 73.457031 L 200.382812 25.925781 Z M 152.855469 25.925781 " fill-opacity="1" fill-rule="nonzero"/></g></g><g clip-path="url(#4b18e1d410)"><g clip-path="url(#8b88f2a0a2)"><path fill="#000000" d="M 203.121094 2.15625 L 203.121094 73.457031 L 226.890625 73.457031 L 226.890625 2.15625 Z M 203.121094 2.15625 " fill-opacity="1" fill-rule="nonzero"/></g></g><g clip-path="url(#b4a84acb12)"><g clip-path="url(#c35caa636c)"><path fill="#000000" d="M 2.042969 25.925781 L 2.042969 49.6875 L 49.570312 49.6875 L 49.570312 25.925781 Z M 2.042969 25.925781 " fill-opacity="1" fill-rule="nonzero"/></g></g><g clip-path="url(#e2769ecfc8)"><g clip-path="url(#44d3b2210b)"><path fill="#000000" d="M 2.042969 49.683594 L 2.042969 73.453125 L 49.574219 73.453125 L 49.574219 49.683594 Z M 2.042969 49.683594 " fill-opacity="1" fill-rule="nonzero"/></g></g><g clip-path="url(#9357028fbf)"><g clip-path="url(#3d309127a8)"><path fill="#000000" d="M 52.3125 25.925781 L 52.3125 73.453125 L 99.835938 73.453125 L 99.835938 25.925781 Z M 52.3125 25.925781 " fill-opacity="1" fill-rule="nonzero"/></g></g><g clip-path="url(#129000b46d)"><g clip-path="url(#69bd3a30f4)"><path fill="#000000" d="M 102.582031 25.925781 L 102.582031 73.457031 L 150.109375 73.457031 L 150.109375 25.925781 Z M 102.582031 25.925781 " fill-opacity="1" fill-rule="nonzero"/></g></g><g clip-path="url(#dd5a73866c)"><g clip-path="url(#567cf011e1)"><path fill="#000000" d="M 152.855469 25.925781 L 152.855469 73.457031 L 200.382812 73.457031 L 200.382812 25.925781 Z M 152.855469 25.925781 " fill-opacity="1" fill-rule="nonzero"/></g></g><g clip-path="url(#962a851a38)"><g clip-path="url(#1c02819b7d)"><path fill="#000000" d="M 203.121094 2.15625 L 203.121094 73.457031 L 226.890625 73.457031 L 226.890625 2.15625 Z M 203.121094 2.15625 " fill-opacity="1" fill-rule="nonzero"/></g></g></svg>